<?xml version="1.0" encoding="iso-8859-1"?>
<!-- Generator: Adobe Illustrator 19.0.0, SVG Export Plug-In . SVG Version: 6.00 Build 0)  -->
<svg version="1.1" id="Layer_1" xmlns="http://www.w3.org/2000/svg" xmlns:xlink="http://www.w3.org/1999/xlink" x="0px" y="0px"
	 viewBox="0 0 512 512" style="enable-background:new 0 0 512 512;" xml:space="preserve">
<g>
	<g>
		<g>
			<path d="M475.118,302.077c0.083-0.212,0.158-0.431,0.225-0.654c6.444-21.648,9.71-44.183,9.71-66.98
				c0-62.622-24.386-121.495-68.666-165.776C372.105,24.386,313.233,0,250.611,0S129.116,24.386,84.835,68.666
				c-44.28,44.281-68.666,103.153-68.666,165.776c0,62.622,24.386,121.495,68.666,165.776
				c44.281,44.28,103.153,68.666,165.776,68.666c2.596,0,5.206-0.043,7.796-0.127C283.485,495.363,319.039,512,358.4,512
				c75.78,0,137.432-61.651,137.432-137.432C495.832,347.982,488.242,323.132,475.118,302.077z M468.737,226.358h-41.351
				c-4.466,0-8.084,3.618-8.084,8.084c0,4.466,3.619,8.084,8.084,8.084h41.351c-0.529,14.508-2.482,28.865-5.832,42.88
				c-25.227-29.52-62.719-48.269-104.504-48.269c-63.676,0-117.378,43.536-132.909,102.4h-46.977
				c-6.046-28.235-9.817-60.897-10.308-97.011h108.275c4.466,0,8.084-3.618,8.084-8.084c0-4.466-3.618-8.084-8.084-8.084H168.207
				c0.49-36.114,4.262-68.775,10.308-97.011h144.056c5.513,25.732,8.978,54.172,10.099,83.841c0.169,4.462,3.912,7.901,8.384,7.774
				c4.463-0.169,7.942-3.922,7.774-8.384c-1.106-29.275-4.444-57.459-9.75-83.231h102.8
				C457.864,158.327,467.455,191.295,468.737,226.358z M432.021,113.179h-96.607c-4.457-17.937-9.922-34.447-16.293-49.022
				c-8.141-18.62-17.546-33.476-27.808-44.183C349.76,31.041,400.036,65.481,432.021,113.179z M250.611,16.168
				c19.271,0,38.34,19.343,53.694,54.465c5.56,12.717,10.397,27.025,14.438,42.546H182.347
				C198.193,52.492,224.986,16.168,250.611,16.168z M209.833,19.987c-11.512,12.045-21.934,29.348-30.751,51.394
				c-5.121,12.801-9.566,26.822-13.295,41.798H69.2C101.169,65.505,151.421,31.072,209.833,19.987z M59.344,129.347h102.774
				c-6.143,29.829-9.606,62.787-10.078,97.011H32.485C33.766,191.295,43.357,158.327,59.344,129.347z M32.485,242.526h119.555
				c0.472,34.223,3.934,67.182,10.078,97.011H59.344C43.357,310.558,33.766,277.589,32.485,242.526z M69.2,355.705h96.586
				c3.728,14.976,8.174,28.996,13.295,41.798c8.818,22.046,19.24,39.349,30.751,51.394
				C151.421,437.812,101.169,403.379,69.2,355.705z M182.347,355.705h39.91c-0.849,6.167-1.289,12.466-1.289,18.863
				c0,28.76,8.88,55.485,24.042,77.577C221.148,447.309,197.042,411.982,182.347,355.705z M358.4,495.832
				c-66.864,0-121.263-54.399-121.263-121.263S291.536,253.305,358.4,253.305s121.263,54.399,121.263,121.263
				S425.264,495.832,358.4,495.832z"/>
			<path d="M381.883,308.962v-20.625c0-4.466-3.618-8.084-8.084-8.084c-4.466,0-8.084,3.618-8.084,8.084v16.935
				c-4.808-0.503-9.821-0.503-14.629,0v-16.935c0-4.466-3.619-8.084-8.084-8.084s-8.084,3.618-8.084,8.084v20.625
				c-26.902,9.658-46.194,35.421-46.194,65.606s19.292,55.948,46.194,65.606V460.8c0,4.466,3.619,8.084,8.084,8.084
				s8.084-3.618,8.084-8.084v-16.935c4.808,0.503,9.821,0.503,14.629,0V460.8c0,4.466,3.618,8.084,8.084,8.084
				c4.466,0,8.084-3.618,8.084-8.084v-20.626c26.902-9.658,46.194-35.421,46.194-65.606S408.785,318.62,381.883,308.962z
				 M334.917,422.646c-17.766-8.714-30.026-26.99-30.026-48.077s12.26-39.364,30.026-48.077V422.646z M365.715,427.58
				c-4.785,0.656-9.844,0.656-14.629,0V321.558c4.785-0.656,9.844-0.656,14.629,0V427.58z M381.883,422.646v-96.154
				c17.766,8.714,30.026,26.99,30.026,48.077S399.65,413.932,381.883,422.646z"/>
		</g>
	</g>
</g>
<g>
</g>
<g>
</g>
<g>
</g>
<g>
</g>
<g>
</g>
<g>
</g>
<g>
</g>
<g>
</g>
<g>
</g>
<g>
</g>
<g>
</g>
<g>
</g>
<g>
</g>
<g>
</g>
<g>
</g>
</svg>
