<?xml version="1.0" encoding="utf-8"?>
<!-- Generator: Adobe Illustrator 16.0.0, SVG Export Plug-In . SVG Version: 6.00 Build 0)  -->
<!DOCTYPE svg PUBLIC "-//W3C//DTD SVG 1.1//EN" "http://www.w3.org/Graphics/SVG/1.1/DTD/svg11.dtd">
<svg version="1.1" id="Layer_1" xmlns="http://www.w3.org/2000/svg" xmlns:xlink="http://www.w3.org/1999/xlink" x="0px" y="0px"
	 width="30px" height="30px" viewBox="0 0 30 30" enable-background="new 0 0 30 30" xml:space="preserve">
<g>
	<polyline fill="#DD5B26" points="30.051,28.75 -0.052,28.75 -0.052,0 30.051,0 30.051,28.75 	"/>
	<g>
		<path fill="#FFFFFF" d="M2.348,10.63h4.468v0.79H3.22v1.956h3.162v0.768H3.22v2.93H2.348V10.63z"/>
		<path fill="#FFFFFF" d="M7.947,10.63h0.881v6.442H7.947V10.63z"/>
		<path fill="#FFFFFF" d="M14.801,11.099c0.445,0.43,0.692,0.918,0.742,1.465h-0.852c-0.095-0.415-0.283-0.744-0.566-0.987
			c-0.283-0.243-0.68-0.364-1.191-0.364c-0.623,0-1.126,0.223-1.509,0.669c-0.383,0.446-0.575,1.13-0.575,2.052
			c0,0.755,0.173,1.367,0.519,1.837c0.346,0.469,0.862,0.704,1.549,0.704c0.632,0,1.113-0.247,1.443-0.741
			c0.175-0.26,0.306-0.602,0.392-1.026h0.851c-0.075,0.678-0.323,1.247-0.745,1.706c-0.506,0.553-1.188,0.828-2.046,0.828
			c-0.74,0-1.361-0.227-1.864-0.68c-0.662-0.6-0.993-1.525-0.993-2.777c0-0.951,0.249-1.73,0.746-2.339
			c0.538-0.661,1.278-0.992,2.223-0.992C13.73,10.455,14.356,10.669,14.801,11.099z"/>
		<path fill="#FFFFFF" d="M16.753,10.63h0.882v2.662h3.311V10.63h0.881v6.442h-0.881v-3.013h-3.311v3.013h-0.882V10.63z"/>
		<path fill="#FFFFFF" d="M25.096,10.63h0.985l2.338,6.442h-0.956l-0.672-1.93h-2.527l-0.699,1.93H22.67L25.096,10.63z
			 M26.543,14.432l-0.991-2.846l-1.031,2.846H26.543z"/>
	</g>
</g>
</svg>
