<?xml version="1.0" encoding="iso-8859-1"?>
<!-- Generator: Adobe Illustrator 19.1.0, SVG Export Plug-In . SVG Version: 6.00 Build 0)  -->
<svg version="1.1" id="Capa_1" xmlns="http://www.w3.org/2000/svg" xmlns:xlink="http://www.w3.org/1999/xlink" x="0px" y="0px"
	 viewBox="0 0 353.554 353.554" style="enable-background:new 0 0 353.554 353.554;" xml:space="preserve">
<g>
	<polygon points="311.889,277.213 311.889,90.054 326.191,104.356 336.798,93.75 304.389,61.341 271.98,93.75 282.586,104.356 
		296.889,90.054 296.889,277.213 247.798,277.213 247.798,251.819 232.798,251.819 232.798,277.213 183.708,277.213 
		183.708,140.084 198.01,154.386 208.617,143.78 176.208,111.371 143.799,143.78 154.405,154.386 168.708,140.083 168.708,277.213 
		119.617,277.213 119.617,251.819 104.617,251.819 104.617,277.213 55.527,277.213 55.527,190.114 69.83,204.417 80.436,193.81 
		48.027,161.401 15.618,193.81 26.224,204.417 40.527,190.114 40.527,277.213 0,277.213 0,292.213 353.554,292.213 353.554,277.213 
			"/>
	<g>
	</g>
	<g>
	</g>
	<g>
	</g>
	<g>
	</g>
	<g>
	</g>
	<g>
	</g>
	<g>
	</g>
	<g>
	</g>
	<g>
	</g>
	<g>
	</g>
	<g>
	</g>
	<g>
	</g>
	<g>
	</g>
	<g>
	</g>
	<g>
	</g>
</g>
<g>
</g>
<g>
</g>
<g>
</g>
<g>
</g>
<g>
</g>
<g>
</g>
<g>
</g>
<g>
</g>
<g>
</g>
<g>
</g>
<g>
</g>
<g>
</g>
<g>
</g>
<g>
</g>
<g>
</g>
</svg>
