<?xml version="1.0" encoding="iso-8859-1"?>
<!-- Generator: Adobe Illustrator 15.0.0, SVG Export Plug-In . SVG Version: 6.00 Build 0)  -->
<!DOCTYPE svg PUBLIC "-//W3C//DTD SVG 1.1//EN" "http://www.w3.org/Graphics/SVG/1.1/DTD/svg11.dtd">
<svg xmlns="http://www.w3.org/2000/svg" xmlns:xlink="http://www.w3.org/1999/xlink" version="1.1" id="Layer_1" x="0px" y="0px" width="512" height="512" viewBox="0 0 128 128" style="enable-background:new 0 0 128 128;" xml:space="preserve">
<g>
	<circle style="fill:#F2CF61;" cx="64" cy="64" r="64"/>
	<path style="fill:#E6E6E6;" d="M43.305,56H30.447H17.593c0,0,2.474,19.557-9.977,38.292C8.297,95.557,9.027,96.789,9.788,98   c10.106,0,20.659,0,20.659,0s14.261,0,25.512,0C40.492,78.234,43.305,56,43.305,56z"/>
	<path style="fill:#CCCCCC;" d="M30.445,98c0,0,14.262,0,25.513,0c-7.304-9.332-10.526-19.212-11.899-27.045   c-2.101,8.014-5.901,17.132-12.694,25.813L30.398,98C30.43,98,30.445,98,30.445,98z"/>
	<path style="fill:#E6E6E6;" d="M120.341,94.378C107.826,75.617,110.305,56,110.305,56H97.447H84.593c0,0,2.813,22.234-12.653,42   c11.246,0,25.509,0,25.509,0s10.624,0,20.767,0C118.957,96.816,119.674,95.613,120.341,94.378z"/>
	<path style="fill:#CCCCCC;" d="M96.466,96.768c-6.747-8.621-10.542-17.693-12.647-25.685C82.432,78.896,79.201,88.72,71.939,98   c11.106,0,25.149,0,25.49,0L96.466,96.768z"/>
	<path style="fill:#F5F5F5;" d="M79.525,47H63.912H48.305c0,0,3.414,27-15.365,51c13.653,0,30.974,0,30.974,0s17.317,0,30.979,0   C76.109,74,79.525,47,79.525,47z"/>
	<path style="fill:#E6E6E6;" d="M79.525,47h-8c0,0-7.416,27,11.365,51c3.977,0,8.133,0,12,0C76.109,74,79.525,47,79.525,47z"/>
	<path style="fill:#E16B5A;" d="M9.787,98C21.109,116.016,41.15,128,64,128s42.891-11.984,54.213-30H9.787z"/>
	<path style="fill:#E16B5A;" d="M79.828,61c-0.17-1.416-0.295-2.756-0.379-4H48.38c-0.084,1.244-0.209,2.584-0.379,4H79.828z"/>
	<path style="fill:#E16B5A;" d="M43.3,65c-0.056-0.698-0.099-1.369-0.129-2H17.727c-0.031,0.631-0.074,1.302-0.129,2H43.3z"/>
	<path style="fill:#E16B5A;" d="M110.3,65c-0.056-0.698-0.099-1.369-0.129-2H84.727c-0.031,0.631-0.074,1.302-0.129,2H110.3z"/>
	<path style="fill:#F2E0A9;" d="M78,26H63v-2h9c1.104,0,2-0.896,2-2s-0.896-2-2-2H54c-1.104,0-2,0.896-2,2s0.896,2,2,2h6v2   c-1.104,0-2,0.896-2,2s0.896,2,2,2h4v2H50c-1.104,0-2,0.896-2,2s0.896,2,2,2h12v11h4V36h2c1.104,0,2-0.896,2-2s-0.896-2-2-2h-1v-2   h11c1.104,0,2-0.896,2-2S79.104,26,78,26z"/>
</g>
</svg>
