<?xml version="1.0" encoding="utf-8"?>
<!-- Generator: Adobe Illustrator 16.0.0, SVG Export Plug-In . SVG Version: 6.00 Build 0)  -->
<!DOCTYPE svg PUBLIC "-//W3C//DTD SVG 1.1//EN" "http://www.w3.org/Graphics/SVG/1.1/DTD/svg11.dtd">
<svg version="1.1" id="Layer_1" xmlns="http://www.w3.org/2000/svg" xmlns:xlink="http://www.w3.org/1999/xlink" x="0px" y="0px"
	 width="30px" height="30px" viewBox="0 0 30 30" enable-background="new 0 0 30 30" xml:space="preserve">
<polyline fill="#3D83E8" points="30.018,28.667 0,28.667 0,0 30.018,0 30.018,28.667 "/>
<g id="layer1" transform="translate(0,-1036.3622)">
	<path id="path2985" fill="#FFFFFF" d="M23.857,1045.036c0,1.397-1.135,2.531-2.53,2.531c-1.399,0-2.531-1.133-2.531-2.531
		s1.132-2.531,2.531-2.531C22.723,1042.505,23.857,1043.638,23.857,1045.036z"/>
	<path id="path2985-1" fill="#FFFFFF" d="M23.857,1057.689c0,1.397-1.135,2.53-2.53,2.53c-1.399,0-2.531-1.133-2.531-2.53
		c0-1.398,1.132-2.531,2.531-2.531C22.723,1055.158,23.857,1056.291,23.857,1057.689z"/>
	<path id="path2985-1-7" fill="#FFFFFF" d="M11.204,1051.362c0,1.397-1.133,2.53-2.531,2.53s-2.531-1.133-2.531-2.53
		s1.133-2.531,2.531-2.531S11.204,1049.965,11.204,1051.362z"/>
	<path id="path3791" fill="none" stroke="#FFFFFF" d="M21.327,1045.036l-12.654,6.327l12.654,6.327"/>
</g>
</svg>
